<svg width="33" height="34" viewBox="0 0 33 34" fill="none" xmlns="http://www.w3.org/2000/svg">
<path fill-rule="evenodd" clip-rule="evenodd" d="M13.0336 2.50211C10.2388 2.50211 7.55848 3.61515 5.58225 5.59637C3.60603 7.57759 2.4958 10.2647 2.4958 13.0666C2.4958 15.8684 3.60603 18.5555 5.58225 20.5368C7.55848 22.518 10.2388 23.631 13.0336 23.631C15.8166 23.631 18.486 22.5274 20.4598 20.5619C20.4698 20.5512 20.48 20.5406 20.4904 20.5302C20.5001 20.5204 20.51 20.5109 20.5199 20.5016C22.4743 18.5238 23.5714 15.8519 23.5714 13.0666C23.5714 10.2647 22.4612 7.57759 20.485 5.59637C18.5087 3.61515 15.8284 2.50211 13.0336 2.50211ZM23.0945 21.3734C25.0081 19.0441 26.0672 16.1101 26.0672 13.0666C26.0672 9.6011 24.694 6.27757 22.2498 3.82711C19.8055 1.37665 16.4903 0 13.0336 0C9.57688 0 6.26173 1.37665 3.81746 3.82711C1.37318 6.27757 0 9.6011 0 13.0666C0 16.532 1.37318 19.8556 3.81746 22.306C6.26173 24.7565 9.57688 26.1331 13.0336 26.1331C16.0743 26.1331 19.0054 25.0679 21.3306 23.1436L30.8692 32.7165C31.3563 33.2054 32.1464 33.2058 32.634 32.7175C33.1216 32.2292 33.122 31.4371 32.635 30.9482L23.0945 21.3734Z" fill="#F3F4F9"/>
</svg>
