<svg width="10" height="16" viewBox="0 0 10 16" fill="none" xmlns="http://www.w3.org/2000/svg">
<path d="M9.2477 7.87366C9.23954 7.58363 9.13344 7.33503 8.91309 7.11129L2.56362 0.805182C2.37591 0.622877 2.15555 0.523438 1.88623 0.523438C1.33943 0.523438 0.915039 0.954341 0.915039 1.50954C0.915039 1.77472 1.02114 2.02331 1.20884 2.21391L6.92174 7.87366L1.20884 13.5334C1.02114 13.724 0.915039 13.9643 0.915039 14.2378C0.915039 14.793 1.33943 15.2239 1.88623 15.2239C2.14739 15.2239 2.37591 15.1244 2.56362 14.9421L8.91309 8.62774C9.1416 8.41229 9.2477 8.16369 9.2477 7.87366Z" fill="#F3F4F9"/>
</svg>
