<svg width="95" height="48" viewBox="0 0 95 48" fill="none" xmlns="http://www.w3.org/2000/svg">
<path d="M0 24C0 10.7452 10.7452 0 24 0H46V25C46 37.7025 35.7025 48 23 48C10.2975 48 0 37.7025 0 25V24Z" fill="#F3F4F9"/>
<path d="M23.2061 12.1943C23.2061 9.20096 25.6326 6.77441 28.6259 6.77441H33.5941V12.4201C33.5941 15.2887 31.2686 17.6141 28.4001 17.6141C25.5315 17.6141 23.2061 15.2887 23.2061 12.4201V12.1943Z" fill="#FC6027"/>
<path d="M23.2061 33.8739C23.2061 30.8806 25.6326 28.4541 28.6259 28.4541H33.5941V34.0998C33.5941 36.9683 31.2686 39.2938 28.4001 39.2938C25.5315 39.2938 23.2061 36.9683 23.2061 34.0998V33.8739Z" fill="#FC6027"/>
<path d="M6.95996 24.3886C6.95996 21.3953 9.38651 18.9688 12.3798 18.9688H17.348V24.6144C17.348 27.483 15.0225 29.8084 12.154 29.8084C9.2854 29.8084 6.95996 27.483 6.95996 24.6144V24.3886Z" fill="#FC6027"/>
<line y1="-0.5" x2="16.8472" y2="-0.5" transform="matrix(0.826467 -0.562985 0.446878 0.894595 12.7637 23.0342)" stroke="#FC6027"/>
<line y1="-0.5" x2="16.8474" y2="-0.5" transform="matrix(0.82643 0.56304 -0.446929 0.894569 11.6035 24.3887)" stroke="#FC6027"/>
<path d="M72.5317 3.48926V7.67871H64.0723V42H59.2651V7.67871H50.8057V3.48926H72.5317Z" fill="#F3F4F9"/>
<path d="M94.3115 31.043C94.3115 33.3167 94.0519 35.1877 93.5327 36.6558C93.0135 38.1239 92.2795 39.2786 91.3306 40.1201C90.3817 40.9616 89.2358 41.5524 87.8931 41.8926C86.5503 42.2148 85.0553 42.376 83.4082 42.376C82.5309 42.376 81.4836 42.3044 80.2661 42.1611C79.0666 42.0179 77.9834 41.821 77.0166 41.5703V37.542C77.876 37.7568 78.8696 37.9538 79.9976 38.1328C81.1434 38.2939 82.4593 38.3745 83.9453 38.3745C85.861 38.3745 87.2485 37.8284 88.1079 36.7363C88.9673 35.6263 89.397 33.9165 89.397 31.6069C89.397 29.1004 89.0747 27.319 88.4302 26.2627C87.7856 25.1885 86.6219 24.4723 84.939 24.1143C83.3993 23.792 82.1012 23.3802 81.0449 22.8789C79.9886 22.3597 79.1292 21.6973 78.4668 20.8916C77.1777 19.3161 76.5332 16.9259 76.5332 13.7212C76.5332 11.7518 76.7928 10.0957 77.312 8.75293C77.8491 7.41016 78.61 6.31803 79.5947 5.47656C80.5615 4.63509 81.6984 4.03532 83.0054 3.67725C84.3302 3.30127 85.7804 3.11328 87.356 3.11328C88.2869 3.11328 89.2896 3.19385 90.3638 3.35498C91.438 3.51611 92.3869 3.71305 93.2104 3.9458V7.94727C92.2437 7.73242 91.1694 7.54443 89.9878 7.3833C88.8241 7.22217 87.7677 7.1416 86.8188 7.1416C85.297 7.1416 84.0169 7.63395 82.9785 8.61865C81.9401 9.60335 81.4209 11.1073 81.4209 13.1304C81.4209 14.5448 81.5194 15.6816 81.7163 16.541C81.9312 17.3825 82.3429 18.036 82.9517 18.5015C83.5604 18.9491 84.4645 19.2982 85.6641 19.5488C86.9889 19.8174 88.1795 20.1934 89.2358 20.6768C90.2922 21.1423 91.1963 21.8047 91.9482 22.6641C92.7002 23.5234 93.2821 24.6335 93.6938 25.9941C94.1056 27.3548 94.3115 29.0378 94.3115 31.043Z" fill="#F3F4F9"/>
</svg>
