<svg width="46" height="45" viewBox="0 0 46 45" fill="none" xmlns="http://www.w3.org/2000/svg">
<path d="M44.7763 2.9723L24.3217 43.8814C23.9595 44.6271 23.3523 45 22.5 45C22.3935 45 22.2337 44.9787 22.0206 44.9361C21.5518 44.8295 21.1736 44.5898 20.886 44.217C20.5984 43.8441 20.4545 43.4233 20.4545 42.9545V24.5455H2.04544C1.57669 24.5455 1.15588 24.4016 0.783013 24.114C0.410144 23.8263 0.170442 23.4482 0.0639078 22.9794C-0.0426263 22.5107 -1.26869e-05 22.0632 0.191749 21.6371C0.38351 21.2109 0.692459 20.8913 1.1186 20.6783L42.0277 0.223722C42.3047 0.0745739 42.6136 0 42.9545 0C43.5298 0 44.0092 0.202415 44.3927 0.607244C44.7123 0.90554 44.9094 1.27308 44.984 1.70987C45.0586 2.14666 44.9893 2.56747 44.7763 2.9723Z" fill="#FE4400"/>
</svg>
