<svg width="38" height="36" viewBox="0 0 38 36" fill="none" xmlns="http://www.w3.org/2000/svg">
<path fill-rule="evenodd" clip-rule="evenodd" d="M18.9613 0.000768746C18.6002 0.0160319 18.2869 0.252761 18.1757 0.594531L14.1082 13.1202L0.8652 13.0942C0.490489 13.0936 0.15795 13.3333 0.0422767 13.6874C-0.073389 14.0414 0.0537231 14.4293 0.357042 14.6477L11.0877 22.3628L6.96742 34.8755L6.96772 34.8752C6.85115 35.2292 6.97766 35.6171 7.28098 35.8361C7.584 36.0549 7.99455 36.0546 8.2973 35.8352L18.9979 28.0765L29.7024 35.8352V35.8349C30.0051 36.0543 30.4157 36.0546 30.719 35.8358C31.022 35.6168 31.1486 35.2286 31.032 34.8749L26.9117 22.3622L37.6424 14.6471L37.6427 14.6474C37.9463 14.4289 38.0734 14.0411 37.9577 13.6868C37.8418 13.3327 37.5095 13.093 37.1345 13.0939L23.8915 13.1199L19.8194 0.594224C19.7001 0.22731 19.3492 -0.0153974 18.9616 0.000760563L18.9613 0.000768746Z" fill="#FC6027"/>
</svg>
