<svg width="52" height="48" viewBox="0 0 52 48" fill="none" xmlns="http://www.w3.org/2000/svg">
<path d="M26.0425 24.375C13.7839 24.375 3.97683 29.9339 0.426034 38.8974C-0.419634 41.0513 0.00319946 43.2751 1.6096 45.0816C3.216 46.8881 5.75234 47.9999 8.4574 47.9999H43.5426C46.3325 47.9999 48.7841 46.9579 50.3904 45.0816C51.9969 43.2751 52.4196 40.9821 51.574 38.8974C48.1082 30.0033 38.3014 24.375 26.0425 24.375Z" fill="#F3F4F9"/>
<path d="M11 12C11 5.37258 16.3726 0 23 0H42V8.5C42 17.0604 35.0604 24 26.5 24H23C16.3726 24 11 18.6274 11 12V12Z" fill="#F3F4F9"/>
</svg>
